<?xml version="1.0" encoding="utf-8"?>
<!-- Generator: Adobe Illustrator 19.2.1, SVG Export Plug-In . SVG Version: 6.00 Build 0)  -->
<svg version="1.1" xmlns="http://www.w3.org/2000/svg" xmlns:xlink="http://www.w3.org/1999/xlink" x="0px" y="0px"
	 viewBox="0 0 684.1 115.6" style="enable-background:new 0 0 684.1 115.6;" xml:space="preserve">
<style type="text/css">
	.st0{fill:none;stroke:#CE0606;stroke-miterlimit:10;}
	.st1{fill:none;stroke:#1600B5;stroke-miterlimit:10;}
	.st2{fill:#CE0606;}
	.st3{fill:#1600B5;}
</style>
<g id="main-text">
</g>
<g id="sub-text">
	<g>
		<g>
			<path d="M49.9,51.2c-4.6,4.5-11,7.2-18.1,7.2c-14.1,0-25.5-10.9-25.5-24.5c0-13.5,11.4-24.5,25.5-24.5c7.1,0,13.5,2.8,18.1,7.2
				l-10.1,9.7c-2-2.2-4.9-3.5-7.9-3.5c-5.8,0-11,4.9-11,11.2c0,6.7,5.2,11.2,11,11.2c3.1,0,6-1.2,8.1-3.5L49.9,51.2z"/>
			<path d="M55,54.3c0-2.5,1.8-4.3,4.3-4.3c2.5,0,4.2,1.8,4.2,4.3c0,2.4-1.6,4.3-4.3,4.3C56.7,58.5,55,56.7,55,54.3z"/>
			<path d="M117,57.8l-9.2-17.3h-2.6v17.3H90.8V10.2h14.3h10.2c0,0,14.6,0,14.6,15.2c0,7.8-3.8,11.6-7.6,13.4l10.1,19H117z
				 M105.3,29h7c0,0,3.2,0,3.2-3.7c0-3.5-3.2-3.5-3.2-3.5h-7V29z"/>
			<path d="M138.7,54.3c0-2.5,1.8-4.3,4.3-4.3c2.5,0,4.2,1.8,4.2,4.3c0,2.4-1.6,4.3-4.3,4.3C140.4,58.5,138.7,56.7,138.7,54.3z"/>
			<path class="st0" d="M216.1,51.2c-4.6,4.5-11,7.2-18.1,7.2c-14.1,0-25.5-10.9-25.5-24.5c0-13.5,11.4-24.5,25.5-24.5
				c7.1,0,13.5,2.8,18.1,7.2l-10.1,9.7c-2-2.2-4.9-3.5-7.9-3.5c-5.8,0-11,4.9-11,11.2c0,6.7,5.2,11.2,11,11.2c3.1,0,6-1.2,8.1-3.5
				L216.1,51.2z"/>
			<path class="st0" d="M270.4,33.9c0,13.5-11.4,24.5-25.5,24.5c-14.1,0-25.5-11-25.5-24.5c0-13.5,11.4-24.5,25.5-24.5
				C258.9,9.5,270.4,20.4,270.4,33.9z M255.8,33.9c0-6.3-5.2-11.2-11-11.2c-5.8,0-11,4.9-11,11.2c0,6.7,5.2,11.2,11,11.2
				C250.6,45.1,255.8,40.6,255.8,33.9z"/>
			<path class="st0" d="M312.7,46.3v11.5h-21.7h-14.4h-0.1V10.2h14.5v36.1H312.7z"/>
			<path class="st0" d="M365.8,33.9c0,13.5-11.4,24.5-25.5,24.5c-14.1,0-25.5-11-25.5-24.5c0-13.5,11.4-24.5,25.5-24.5
				C354.4,9.5,365.8,20.4,365.8,33.9z M351.3,33.9c0-6.3-5.2-11.2-11-11.2s-11,4.9-11,11.2c0,6.7,5.2,11.2,11,11.2
				S351.3,40.6,351.3,33.9z"/>
			<path class="st0" d="M371.9,9.1l30.4,21.7l-0.1-20.5h13.9v48.1l-31.3-22.3v21.7h-12.9V9.1z"/>
			<path class="st1" d="M457.4,57.8h-16.3L466.8,9l25.7,48.8h-16.7l-9.2-21L457.4,57.8z M461.7,47.8l5,9.1l4.9-9.1H461.7z"/>
			<path class="st1" d="M528.1,10.2h16.7l-25.9,48l-25.8-48h16.7l9.2,20.2L528.1,10.2z"/>
			<path class="st1" d="M549.4,57.8h-16.3L558.8,9l25.7,48.8h-16.7l-9.2-21L549.4,57.8z M553.6,47.8l5,9.1l4.9-9.1H553.6z"/>
			<path class="st1" d="M625,46.3v11.5h-21.7h-14.4h-0.1V10.2h14.5v36.1H625z"/>
			<path class="st1" d="M678.1,33.9c0,13.5-11.4,24.5-25.5,24.5c-14.1,0-25.5-11-25.5-24.5c0-13.5,11.4-24.5,25.5-24.5
				C666.7,9.5,678.1,20.4,678.1,33.9z M663.6,33.9c0-6.3-5.2-11.2-11-11.2s-11,4.9-11,11.2c0,6.7,5.2,11.2,11,11.2
				S663.6,40.6,663.6,33.9z"/>
		</g>
		<g>
			<path class="st2" d="M14.5,92H7.6l-3.1,8.3l-0.7,0.4l-0.5-0.4l10.5-27.9l0.7-0.7l0.6,0.7l10.5,27.9l-0.5,0.4l-0.6-0.4L21.4,92
				C20.8,92,18.5,92,14.5,92z M11.8,96C11.8,96,11.8,95.9,11.8,96l-7.4,3.4l0,0.1L11.8,96z M4.4,99.4C4.4,99.4,4.4,99.4,4.4,99.4
				L14.9,99v0L4.4,99.4z M7.6,92C7.6,92,7.7,92,7.6,92l7.4,7l0,0L7.6,92z M14.5,91H21l-5.9-15.7l-0.6-1.7h-0.1l-0.6,1.7L8,91
				C8.6,91,10.7,91,14.5,91z M9.1,87.7C9.1,87.7,9.1,87.6,9.1,87.7l5.8,3.4l0,0.1L9.1,87.7z M9.2,87.7C9.2,87.7,9.1,87.6,9.2,87.7
				l3.9-5.4l0,0L9.2,87.7z M9.2,87.7C9.2,87.7,9.2,87.6,9.2,87.7l6.1-1.4v0L9.2,87.7z M11.7,80.1C11.7,80.1,11.8,80.1,11.7,80.1
				l1.4,2.2l-0.1,0L11.7,80.1z M11.8,96C11.8,96,11.7,95.9,11.8,96l3.2-4L15,92L11.8,96z M16.4,96.2C16.4,96.2,16.4,96.1,16.4,96.2
				l-4.6-0.3V96L16.4,96.2z M13.1,82.3L13.1,82.3l2.2-2.1l0,0L13.1,82.3z M13.1,82.3C13.1,82.3,13.1,82.3,13.1,82.3l2.2,3.9l0,0
				L13.1,82.3z M14.8,91.1C14.7,91.1,14.7,91.1,14.8,91.1l0.5-4.9l0.1,0L14.8,91.1z M14.9,99.1L14.9,99.1l9.5,0.1v0.1L14.9,99.1z
				 M15,99.1C15,99.1,15,99,15,99.1l1.4-2.9l0,0.1L15,99.1z M16.4,96.2C16.4,96.2,16.4,96.1,16.4,96.2L15,92l0,0.1L16.4,96.2z
				 M15.3,86.3L15.3,86.3l3.9-1l0,0.1L15.3,86.3z M15.3,80.3C15.3,80.2,15.3,80.2,15.3,80.3l0.1-5.3l-0.1,0.1V80.3z M15.3,86.3
				C15.3,86.3,15.3,86.3,15.3,86.3l0.1-6l-0.1,0V86.3z M15.3,80.3L15.3,80.3l3.9,5l0,0.1L15.3,80.3z M15.3,86.3L15.3,86.3l5.4,5.1
				l0,0.1L15.3,86.3z M16.4,96.2C16.4,96.2,16.4,96.1,16.4,96.2l5.9-1.7l0,0L16.4,96.2z M16.4,96.2C16.4,96.2,16.4,96.1,16.4,96.2
				l7.8,3v0.1L16.4,96.2z"/>
			<path class="st2" d="M53.2,82v9.5c0,3.1-0.9,5.4-2.6,7s-4.1,2.4-7,2.4c-2.9,0-5.3-0.8-7-2.4s-2.6-3.9-2.6-7V72.5l0.5-0.7l0.5,0.7
				v18.9c0,2.7,0.8,4.7,2.4,6.2c1.6,1.4,3.7,2.2,6.2,2.2c2.6,0,4.7-0.7,6.2-2.2c1.6-1.4,2.4-3.5,2.4-6.2V72.5l0.5-0.7l0.5,0.7
				C53.2,73.3,53.2,76.4,53.2,82z M34.5,72.6C34.5,72.6,34.5,72.6,34.5,72.6l4.1,1.9l0,0.1L34.5,72.6z M34.9,85.7
				C34.9,85.7,34.9,85.7,34.9,85.7l3.7-11.2l0,0.1L34.9,85.7z M34.9,85.7L34.9,85.7l9.3-1.8V84L34.9,85.7z M44.2,84
				C44.2,84,44.2,83.9,44.2,84l-8.1,12.3l0.1,0L44.2,84z M36.2,96.3L36.2,96.3l11.6-1.6v0L36.2,96.3z M38.6,74.6
				C38.6,74.6,38.6,74.5,38.6,74.6l13.8-2v0.1L38.6,74.6z M38.6,74.6C38.6,74.6,38.6,74.5,38.6,74.6l5.7,9.3L44.2,84L38.6,74.6z
				 M38.6,74.6C38.6,74.6,38.6,74.5,38.6,74.6l13.6,4.1l0,0L38.6,74.6z M44.2,84C44.2,84,44.2,83.9,44.2,84l7.9-5.3l0,0L44.2,84z
				 M44.2,84C44.2,84,44.2,83.9,44.2,84l3.6,10.7l-0.1,0L44.2,84z M44.2,84C44.2,84,44.2,83.9,44.2,84l8,5.8l0,0L44.2,84z
				 M47.7,94.7C47.7,94.7,47.7,94.7,47.7,94.7l4.3-4.9l0,0L47.7,94.7z M47.7,94.7C47.8,94.7,47.8,94.7,47.7,94.7l2,2.8l0,0.1
				L47.7,94.7z"/>
			<path class="st2" d="M77.1,72.8h-5.2v27.4l-0.5,0.6l-0.5-0.6V72.8H60.5l-0.7-0.5l0.7-0.6h21.7l0.7,0.6l-0.7,0.5
				C81.8,72.8,80.1,72.8,77.1,72.8z M62.9,72.8C62.9,72.8,62.9,72.8,62.9,72.8l8.3,7l0,0.1L62.9,72.8z M66.3,87.5
				C66.3,87.5,66.3,87.5,66.3,87.5l-3.3-14.8l0,0.1L66.3,87.5z M64.4,95.4C64.4,95.3,64.4,95.3,64.4,95.4l1.8-7.9l0.1,0.1L64.4,95.4
				z M71.2,90.3C71.1,90.2,71.1,90.2,71.2,90.3l-6.8,5l0,0.1L71.2,90.3z M64.4,95.4C64.4,95.3,64.4,95.3,64.4,95.4l6.5,3.1v0
				L64.4,95.4z M70.9,79.6C70.9,79.6,70.8,79.6,70.9,79.6l-4.7,7.9l0.1,0.1L70.9,79.6z M66.3,87.5C66.3,87.5,66.3,87.5,66.3,87.5
				l4.9,2.7l0,0.1L66.3,87.5z M71.7,98.7C71.7,98.7,71.7,98.7,71.7,98.7l7.9-4.5l0,0.1L71.7,98.7z M71.9,77.8
				C71.9,77.8,71.9,77.8,71.9,77.8l2.9-5.3l0,0.1L71.9,77.8z M74.9,82.6C74.9,82.6,74.9,82.6,74.9,82.6l-3,7.6l0.1,0.1L74.9,82.6z
				 M71.9,90.3C71.9,90.2,71.9,90.2,71.9,90.3L84,86.7l0,0.1L71.9,90.3z M71.9,77.8C71.9,77.8,71.9,77.8,71.9,77.8l7.1-1.2v0.1
				L71.9,77.8z M74.9,82.6C74.9,82.6,74.9,82.6,74.9,82.6L72,77.8l0,0.1L74.9,82.6z M71.9,90.3C71.9,90.2,71.9,90.2,71.9,90.3l7.7,4
				l0,0.1L71.9,90.3z M74.8,72.8C74.8,72.8,74.8,72.8,74.8,72.8l4.2,3.7l0,0.1L74.8,72.8z M74.9,82.6C74.9,82.6,74.9,82.6,74.9,82.6
				l4.2-6.1l0,0L74.9,82.6z M74.9,82.6L74.9,82.6L85,78.1l0,0.1L74.9,82.6z M84.1,86.7C84.1,86.7,84.1,86.7,84.1,86.7l-9.1-4.1l0,0
				L84.1,86.7z M79,76.6C79,76.6,79,76.6,79,76.6l3.1-3.9l0,0.1L79,76.6z M79,76.6C79,76.6,79,76.6,79,76.6l6.1,1.4v0.1L79,76.6z
				 M79.6,94.3C79.6,94.3,79.6,94.2,79.6,94.3l4.4-7.6l0.1,0.1L79.6,94.3z M82.1,72.8C82.1,72.8,82.2,72.8,82.1,72.8l2.9,5.2l0,0.1
				L82.1,72.8z M84.1,86.7C84,86.7,84,86.7,84.1,86.7l0.9-8.7l0.1,0.1L84.1,86.7z"/>
			<path class="st2" d="M111.3,100.5l-0.3,0.3l-0.6-0.5V86.9H92.6v13.4l-0.5,0.4l-0.6-0.4V72.2l0.5-0.4l0.5,0.4v13.6h17.9V72.2
				l0.6-0.4l0.5,0.4v28.1C111.5,100.3,111.4,100.4,111.3,100.5z M98.5,79.3C98.5,79.3,98.5,79.2,98.5,79.3l-6.4,5.2l0,0.1L98.5,79.3
				z M92.2,98.4C92.2,98.4,92.2,98.4,92.2,98.4l11.9-3.9l0,0.1L92.2,98.4z M92.4,98.4C92.4,98.4,92.4,98.4,92.4,98.4l5.4-8.6
				l0.1,0.1L92.4,98.4z M92.6,73.1C92.6,73.1,92.6,73.1,92.6,73.1l10,0.9V74L92.6,73.1z M92.6,73.1C92.6,73.1,92.6,73.1,92.6,73.1
				l6,6.2l-0.1,0L92.6,73.1z M92.6,98.3L92.6,98.3l10.8,1v0L92.6,98.3z M93.1,86.5C93.1,86.5,93.1,86.5,93.1,86.5l4.9,3.4l0,0.1
				L93.1,86.5z M97.8,89.8C97.8,89.8,97.8,89.8,97.8,89.8l6.5,4.7l0,0.1L97.8,89.8z M97.9,89.9C97.9,89.9,97.9,89.9,97.9,89.9
				l5.3-3.1l0,0.1L97.9,89.9z M98.4,79.4C98.4,79.3,98.4,79.3,98.4,79.4l4-5.4l0.1,0.1L98.4,79.4z M98.5,79.3L98.5,79.3l8.1-2.1v0.1
				L98.5,79.3z M98.5,79.3C98.5,79.3,98.5,79.3,98.5,79.3l6.1,6.6l0,0.1L98.5,79.3z M102.5,74C102.5,74,102.5,74,102.5,74l8.2-2v0.1
				L102.5,74z M102.5,74C102.5,74,102.6,74,102.5,74l4.1,3.1l-0.1,0.1L102.5,74z M104.2,94.6C104.2,94.6,104.2,94.5,104.2,94.6
				l-0.9-8.1l0,0.1L104.2,94.6z M103.3,86.9C103.3,86.8,103.3,86.8,103.3,86.9l7.2,2.7l0,0L103.3,86.9z M103.3,99.3L103.3,99.3
				l7.4-2.9l0,0.1L103.3,99.3z M103.4,99.3C103.4,99.3,103.4,99.3,103.4,99.3l0.7-4.9l0.1,0.1L103.4,99.3z M104.2,94.6
				C104.2,94.6,104.2,94.5,104.2,94.6l6.2-5l0,0L104.2,94.6z M104.2,94.6C104.2,94.6,104.2,94.5,104.2,94.6l6.8,1.9v0L104.2,94.6z
				 M104.5,86.3C104.5,86.3,104.4,86.3,104.5,86.3l2.1-9.1l0,0.1L104.5,86.3z M110.8,72.1C110.8,72.1,110.8,72.1,110.8,72.1l-4.2,5
				l0,0.1L110.8,72.1z M106.6,77.2C106.6,77.2,106.6,77.2,106.6,77.2l4.1,9l0,0.1L106.6,77.2z"/>
			<path class="st2" d="M139.3,97.4c-2.2,2.2-5.1,3.4-8.8,3.4c-3.7,0-6.7-1.1-8.8-3.4c-2.2-2.2-3.2-5.3-3.2-9v-4.2
				c0-3.8,1.1-6.8,3.2-9c2.2-2.2,5.1-3.4,8.8-3.4c3.7,0,6.7,1.1,8.8,3.4c2.2,2.2,3.3,5.3,3.3,9v4.2
				C142.6,92.2,141.5,95.2,139.3,97.4z M123.5,86.8C123.5,86.8,123.5,86.7,123.5,86.8l-4-4.9l0,0L123.5,86.8z M141.4,84.1
				c0-3.4-1-6.2-2.9-8.2c-1.9-2.1-4.6-3.1-8-3.1c-3.4,0-6.1,1-8,3.1c-1.9,2.1-2.8,4.8-2.8,8.2v4.2c0,3.5,1,6.2,2.9,8.3
				c1.9,2.1,4.6,3.1,8,3.1s6.1-1,8-3.1c1.9-2.1,2.8-4.8,2.8-8.3V84.1z M119.7,90C119.7,90,119.7,89.9,119.7,90l3.7-3.3l0.1,0.1
				L119.7,90z M119.7,90C119.7,90,119.7,89.9,119.7,90l9.4,0.7v0L119.7,90z M122,76.4C122,76.4,122,76.4,122,76.4l5.7,1.7v0.1
				L122,76.4z M127.8,78.2C127.7,78.2,127.7,78.1,127.8,78.2l-4.3,8.6l0.1,0.1L127.8,78.2z M123.5,86.8
				C123.5,86.8,123.5,86.7,123.5,86.8l5.6,3.9l0,0L123.5,86.8z M129.1,90.7C129.1,90.7,129.1,90.7,129.1,90.7l-1.4,8.7l0.1,0.1
				L129.1,90.7z M127.8,78.2C127.7,78.2,127.7,78.1,127.8,78.2l4.1-5.3l0.1,0.1L127.8,78.2z M127.8,78.2
				C127.8,78.2,127.8,78.1,127.8,78.2l10.8-2.3l0,0.1L127.8,78.2z M127.8,78.2C127.8,78.2,127.8,78.1,127.8,78.2l14.2,3.7l0,0
				L127.8,78.2z M131.4,86.3C131.4,86.3,131.4,86.3,131.4,86.3l-3.6-8.2l0,0.1L131.4,86.3z M129.1,90.7L129.1,90.7l2.2-4.5l0.1,0.1
				L129.1,90.7z M129.1,90.7C129.1,90.7,129.2,90.7,129.1,90.7l5.3,8.4l0,0.1L129.1,90.7z M129.1,90.7L129.1,90.7l5.7,2.9v0.1
				L129.1,90.7z M131.4,86.3C131.4,86.3,131.3,86.3,131.4,86.3l10.5-4.4v0L131.4,86.3z M134.8,93.7
				C134.8,93.7,134.8,93.7,134.8,93.7l-3.4-7.4l0,0.1L134.8,93.7z M134.8,93.7C134.8,93.7,134.8,93.7,134.8,93.7l-0.5,5.5l0.1,0.1
				L134.8,93.7z M141.9,81.9C141.9,81.9,141.9,81.9,141.9,81.9l-7.1,11.7l0.1,0.1L141.9,81.9z M134.8,93.7
				C134.8,93.7,134.8,93.7,134.8,93.7l6.4-3v0L134.8,93.7z M134.8,93.7C134.8,93.7,134.8,93.7,134.8,93.7l2.8,4.4l0,0.1L134.8,93.7z
				"/>
			<path class="st2" d="M151,93.4v6.6l-0.6,0.8L150,100V71.8h9c3,0,5.3,0.6,6.9,1.9c1.6,1.3,2.4,3.1,2.4,5.7c0,1.6-0.5,3-1.5,4.3
				c-1,1.3-2.3,2.1-4,2.5l-0.8,0.3c0.4,0.9,1.6,3.1,3.6,6.8s3.2,5.8,3.5,6.6v1l-0.9-0.5c-0.5-0.7-1.7-3-3.8-6.8l-3.7-6.7
				c0-0.1,0-0.1-0.1-0.1h0c-0.1,0-0.4,0-1,0H151C151,87.3,151,89.5,151,93.4z M150.5,74.5C150.5,74.5,150.6,74.5,150.5,74.5l3.1,4.9
				l-0.1,0.1L150.5,74.5z M154.1,92.3C154.1,92.3,154.1,92.3,154.1,92.3l-3.5,6.8l0.1,0.1L154.1,92.3z M150.7,99.2
				C150.6,99.2,150.6,99.2,150.7,99.2l15-3.9v0.1L150.7,99.2z M154.9,85.7h3.9c2.9,0,5.1-0.6,6.4-1.8c1.3-1.2,2-2.7,2-4.6
				c0-2.2-0.7-3.8-2-4.9c-1.3-1.1-3.4-1.6-6.2-1.6h-8v12.9C151.4,85.7,152.7,85.7,154.9,85.7z M153.6,79.4
				C153.6,79.4,153.5,79.4,153.6,79.4l-2.4,6.8l0.1,0.1L153.6,79.4z M151.2,86.3C151.2,86.3,151.2,86.3,151.2,86.3l3,6l-0.1,0.1
				L151.2,86.3z M153.6,79.4C153.6,79.4,153.5,79.4,153.6,79.4l4.7-7.3l0,0L153.6,79.4z M153.6,79.4
				C153.6,79.4,153.6,79.4,153.6,79.4l13.1-4.2l0,0.1L153.6,79.4z M153.6,79.4C153.6,79.4,153.6,79.4,153.6,79.4l7.1,6.6l0,0
				L153.6,79.4z M154.1,92.3C154.1,92.3,154.1,92.3,154.1,92.3l8.8-2.2l0,0L154.1,92.3z M154.1,92.3
				C154.1,92.3,154.1,92.3,154.1,92.3l12,3.2l0,0L154.1,92.3z M166.7,75.3C166.7,75.2,166.7,75.2,166.7,75.3L160.1,86l0,0
				L166.7,75.3z"/>
			<path class="st2" d="M176.8,98.6c0.6,0,0.9,0.3,0.9,0.9c0,0.6-0.3,0.9-0.9,0.9c-0.6,0-0.9-0.3-0.9-0.9
				C175.9,98.9,176.2,98.6,176.8,98.6z"/>
			<path class="st3" d="M213.2,86.3V71.8h8c1.7,0,3.3,0.3,4.8,0.9c1.5,0.6,2.7,1.5,3.8,2.6c1.1,1.1,1.9,2.5,2.5,4
				c0.6,1.6,0.9,3.3,0.9,5.2v3.6c0,1.9-0.3,3.6-0.9,5.2c-0.6,1.6-1.4,2.9-2.5,4c-1.1,1.1-2.3,2-3.8,2.6c-1.5,0.6-3.1,0.9-4.8,0.9h-8
				C213.2,99.6,213.2,94.8,213.2,86.3z M214,73.8C214,73.8,214,73.8,214,73.8l7.3,5.5l0,0.1L214,73.8z M214,83C214,83,214,83,214,83
				l4.3,11.2l0,0.1L214,83z M214.2,83.4C214.1,83.4,214.1,83.3,214.2,83.4l7.1-4l0,0.1L214.2,83.4z M214.2,83.4
				C214.2,83.4,214.2,83.3,214.2,83.4l12.7,2.5v0L214.2,83.4z M214.3,72.9c0,1.1,0,5.6,0,13.4v13.4h6.9c1.6,0,3-0.3,4.3-0.9
				c1.3-0.6,2.5-1.4,3.5-2.4c1-1,1.7-2.3,2.3-3.7c0.5-1.4,0.8-3,0.8-4.7v-3.6c0-1.7-0.3-3.2-0.8-4.7c-0.5-1.4-1.3-2.6-2.3-3.7
				c-1-1-2.1-1.8-3.5-2.4c-1.3-0.6-2.8-0.9-4.3-0.9H214.3z M218.3,94.2C218.2,94.2,218.2,94.2,218.3,94.2l-3.3,6.1l0.1,0.1
				L218.3,94.2z M218.3,94.2C218.2,94.2,218.2,94.2,218.3,94.2l8.6-8.4l0,0L218.3,94.2z M218.3,94.2
				C218.3,94.2,218.3,94.2,218.3,94.2l8.2-2.7v0.1L218.3,94.2z M218.3,94.2C218.3,94.2,218.3,94.2,218.3,94.2l6.2,5.8l0,0
				L218.3,94.2z M221.3,79.4C221.3,79.4,221.3,79.4,221.3,79.4l3.9-6.4l0,0.1L221.3,79.4z M221.3,79.4
				C221.3,79.4,221.3,79.4,221.3,79.4l5.6,6.5l0,0L221.3,79.4z M221.3,79.4C221.3,79.4,221.3,79.4,221.3,79.4l7.4,0.7v0L221.3,79.4z
				 M226.5,91.6C226.5,91.6,226.4,91.6,226.5,91.6l-2,8.4l0,0L226.5,91.6z M225,73.2C225,73.2,225,73.2,225,73.2l3.8,6.9l-0.1,0
				L225,73.2z M226.5,91.6C226.5,91.6,226.4,91.6,226.5,91.6l0.3-5.8l0.1,0L226.5,91.6z M226.5,91.6
				C226.5,91.6,226.4,91.6,226.5,91.6l2.8-2.8l0,0.1L226.5,91.6z M226.5,91.6C226.5,91.6,226.5,91.6,226.5,91.6l5.4,0.9v0.1
				L226.5,91.6z M226.9,85.9C226.9,85.9,226.8,85.8,226.9,85.9l1.8-5.8l0,0L226.9,85.9z M226.9,85.9L226.9,85.9l2.5,3l0,0.1
				L226.9,85.9z M228.7,80.1L228.7,80.1l2.2-2.4l0,0.1L228.7,80.1z M228.7,80.1C228.7,80.1,228.7,80.1,228.7,80.1l3.9,9.6l-0.1,0.1
				L228.7,80.1z M228.7,80.1C228.7,80.1,228.7,80.1,228.7,80.1l3.9,2.2l0,0L228.7,80.1z M229.3,88.9
				C229.3,88.9,229.3,88.9,229.3,88.9l3.2,0.6v0L229.3,88.9z"/>
			<path class="st3" d="M251.5,86.2h-7.3v13.5h16.6l0.5,0.6l-0.5,0.5h-17.6v-29h17.6l0.5,0.6l-0.5,0.5h-16.6v12.3h14.5l0.5,0.6
				l-0.5,0.5C258.1,86.2,255.7,86.2,251.5,86.2z M243.7,85.8C243.7,85.8,243.7,85.8,243.7,85.8l4.6-5.4l0.1,0.1L243.7,85.8z
				 M243.9,73.5C243.9,73.5,243.9,73.5,243.9,73.5l4.5,6.9l0,0.1L243.9,73.5z M248.4,94C248.4,94,248.4,94,248.4,94l-4.4-7.6l0,0.1
				L248.4,94z M248.4,94C248.3,94,248.3,94,248.4,94l-3.4,6.2l0.1,0.1L248.4,94z M248.4,80.4C248.3,80.4,248.3,80.4,248.4,80.4
				l2.9-7.6l0.1,0.1L248.4,80.4z M248.4,94C248.3,94,248.3,94,248.4,94l5.8-7.8l0,0.1L248.4,94z M248.4,80.4
				C248.4,80.4,248.4,80.4,248.4,80.4l7.6-0.5l0,0.1L248.4,80.4z M248.4,94C248.3,94,248.3,94,248.4,94l8.2-3.6l0,0.1L248.4,94z
				 M248.4,80.4C248.4,80.4,248.4,80.4,248.4,80.4l5.8,5.1l0,0L248.4,80.4z M248.4,94C248.4,94,248.4,94,248.4,94l4.6,6l0,0.1
				L248.4,94z M248.4,94C248.4,94,248.4,94,248.4,94l6.2,0.1v0.1L248.4,94z M251.3,72.9C251.3,72.9,251.3,72.8,251.3,72.9l4.7,7.1
				l0,0.1L251.3,72.9z M254.6,94.2C254.6,94.2,254.6,94.1,254.6,94.2l-1.7,5.9l0.1,0.1L254.6,94.2z M256,80
				C256,80,255.9,79.9,256,80l-1.9,5.5l0.1,0L256,80z M254.2,86.2C254.2,86.2,254.2,86.2,254.2,86.2l2.5,4.2l0,0.1L254.2,86.2z
				 M256.6,90.5C256.6,90.5,256.6,90.5,256.6,90.5l-2.1,3.6l0.1,0.1L256.6,90.5z M254.6,94.2C254.6,94.2,254.6,94.1,254.6,94.2
				l5.7,5.9l0,0.1L254.6,94.2z M256,80C256,80,255.9,79.9,256,80l4.7-7.6l0,0.1L256,80z M256.6,90.5
				C256.6,90.5,256.6,90.5,256.6,90.5l3.7,9.7l0,0.1L256.6,90.5z"/>
			<path class="st3" d="M280.9,98.3l0.3,0.8h0.1l0.5-1.6l9.3-25l0.7-0.7l0.4,0.7l-10.3,27.6l-0.6,0.7l-0.6-0.7l-10.3-27.6l0.4-0.7
				l0.7,0.7l9.3,25C280.7,97.5,280.8,97.8,280.9,98.3z M271.6,73.1L271.6,73.1l9,2l0,0.1L271.6,73.1z M275.7,84.1
				C275.7,84.1,275.7,84.1,275.7,84.1l4.8-9.1l0,0.1L275.7,84.1z M275.7,84.1C275.7,84.1,275.7,84.1,275.7,84.1l11,0.1v0.1
				L275.7,84.1z M286.7,84.3C286.7,84.2,286.6,84.2,286.7,84.3l-8.3,7.6l0,0L286.7,84.3z M280.5,75.1
				C280.5,75.1,280.5,75,280.5,75.1l11-2.6v0.1L280.5,75.1z M280.5,75.1C280.5,75.1,280.5,75,280.5,75.1l6.5,9.5l-0.1,0.1
				L280.5,75.1z M280.5,75.1C280.5,75.1,280.5,75,280.5,75.1l8.8,3.2v0.1L280.5,75.1z"/>
			<path class="st3" d="M309.5,86.2h-7.3v13.5h16.6l0.5,0.6l-0.5,0.5h-17.6v-29h17.6l0.5,0.6l-0.5,0.5h-16.6v12.3h14.5l0.5,0.6
				l-0.5,0.5C316.1,86.2,313.7,86.2,309.5,86.2z M301.7,85.8C301.7,85.8,301.7,85.8,301.7,85.8l4.6-5.4l0.1,0.1L301.7,85.8z
				 M301.9,73.5C301.9,73.5,301.9,73.5,301.9,73.5l4.5,6.9l0,0.1L301.9,73.5z M306.4,94C306.4,94,306.4,94,306.4,94l-4.4-7.6l0,0.1
				L306.4,94z M306.4,94C306.3,94,306.3,94,306.4,94l-3.4,6.2l0.1,0.1L306.4,94z M306.4,80.4C306.3,80.4,306.3,80.4,306.4,80.4
				l2.9-7.6l0.1,0.1L306.4,80.4z M306.4,94C306.3,94,306.3,94,306.4,94l5.8-7.8l0,0.1L306.4,94z M306.4,80.4
				C306.4,80.4,306.4,80.4,306.4,80.4l7.6-0.5l0,0.1L306.4,80.4z M306.4,94C306.3,94,306.3,94,306.4,94l8.2-3.6l0,0.1L306.4,94z
				 M306.4,80.4C306.4,80.4,306.4,80.4,306.4,80.4l5.8,5.1l0,0L306.4,80.4z M306.4,94C306.4,94,306.4,94,306.4,94l4.6,6l0,0.1
				L306.4,94z M306.4,94C306.4,94,306.4,94,306.4,94l6.2,0.1v0.1L306.4,94z M309.3,72.9C309.3,72.9,309.3,72.8,309.3,72.9l4.7,7.1
				l0,0.1L309.3,72.9z M312.6,94.2C312.6,94.2,312.6,94.1,312.6,94.2l-1.7,5.9l0.1,0.1L312.6,94.2z M314,80
				C314,80,313.9,79.9,314,80l-1.9,5.5l0.1,0L314,80z M312.2,86.2C312.2,86.2,312.2,86.2,312.2,86.2l2.5,4.2l0,0.1L312.2,86.2z
				 M314.6,90.5C314.6,90.5,314.6,90.5,314.6,90.5l-2.1,3.6l0.1,0.1L314.6,90.5z M312.6,94.2C312.6,94.2,312.6,94.1,312.6,94.2
				l5.7,5.9l0,0.1L312.6,94.2z M314,80C314,80,313.9,79.9,314,80l4.7-7.6l0,0.1L314,80z M314.6,90.5
				C314.6,90.5,314.6,90.5,314.6,90.5l3.7,9.7l0,0.1L314.6,90.5z"/>
			<path class="st3" d="M339.5,99.8h7.3l0.4,0.5l-0.4,0.5h-15.7V72.3l0.5-0.5l0.5,0.5v27.5C332.8,99.8,335.2,99.8,339.5,99.8z
				 M334.4,81.1C334.4,81,334.4,81,334.4,81.1l-2.8-5.8l0,0.1L334.4,81.1z M331.7,100C331.7,100,331.7,100,331.7,100l3.5-6.1l0,0.1
				L331.7,100z M337.9,77C337.9,77,337.9,77,337.9,77l-6.1-4.6l0,0.1L337.9,77z M335.3,94C335.3,94,335.3,94,335.3,94l-3.5-6l0,0
				L335.3,94z M332,76.3C332,76.3,332,76.3,332,76.3l5.9,0.7V77L332,76.3z M332.1,84.6C332.1,84.6,332.1,84.5,332.1,84.6l2.2-3.6
				l0,0.1L332.1,84.6z M332.1,84.6C332.2,84.6,332.2,84.5,332.1,84.6l6.4,2.8l0,0.1L332.1,84.6z M332.2,72.5
				C332.2,72.4,332.2,72.4,332.2,72.5l9.2,0.5V73L332.2,72.5z M341.4,73C341.4,73,341.4,73,341.4,73l-7,8l0,0.1L341.4,73z
				 M334.4,81.1C334.4,81,334.4,81,334.4,81.1l9.7,0.3v0.1L334.4,81.1z M334.4,81.1C334.4,81,334.4,81,334.4,81.1l4.2,6.3l0,0.1
				L334.4,81.1z M339.6,85.1C339.6,85,339.6,85,339.6,85.1l-5.2-4l0,0.1L339.6,85.1z M335.3,94C335.3,94,335.3,94,335.3,94l3.2-6.7
				l0.1,0.1L335.3,94z M335.3,94C335.3,94,335.3,94,335.3,94l4.8,5.7l-0.1,0.1L335.3,94z M343.1,95.6L343.1,95.6l-7.8-1.7l0,0.1
				L343.1,95.6z M337.9,77C337.9,77,337.9,77,337.9,77l6.2,4.3l0,0.1L337.9,77z M338.5,87.4C338.5,87.4,338.5,87.4,338.5,87.4l1-2.4
				l0,0.1L338.5,87.4z M338.5,87.4C338.6,87.4,338.6,87.4,338.5,87.4l4.6,8.2l-0.1,0L338.5,87.4z M338.5,87.4
				C338.5,87.4,338.5,87.4,338.5,87.4l5.5,1.2v0.1L338.5,87.4z M344,81.4C344,81.4,344,81.4,344,81.4l-4.5,3.6l0,0.1L344,81.4z
				 M339.6,85.1C339.6,85,339.6,85,339.6,85.1l4.5,3.6l0,0.1L339.6,85.1z M340.1,100C340.1,100,340.1,100,340.1,100l3-4.4l0,0
				L340.1,100z M344,81.4C344,81.4,344.1,81.4,344,81.4l-2.6-8.5l-0.1,0.1L344,81.4z M344,88.7C344,88.7,344,88.6,344,88.7l-1,6.9
				l0.1,0L344,88.7z M343.1,95.6C343.1,95.6,343.2,95.6,343.1,95.6l3.5,4.4l0,0.1L343.1,95.6z M344,81.4C344,81.4,344,81.4,344,81.4
				l-0.1,7.2l0.1,0.1V81.4z"/>
			<path class="st3" d="M377,97.4c-2.2,2.2-5.1,3.4-8.8,3.4s-6.7-1.1-8.8-3.4c-2.2-2.2-3.2-5.3-3.2-9v-4.2c0-3.8,1.1-6.8,3.2-9
				c2.2-2.2,5.1-3.4,8.8-3.4c3.7,0,6.7,1.1,8.8,3.4c2.2,2.2,3.3,5.3,3.3,9v4.2C380.3,92.2,379.2,95.2,377,97.4z M361.2,86.8
				C361.2,86.8,361.2,86.7,361.2,86.8l-4-4.9l0,0L361.2,86.8z M379.1,84.1c0-3.4-1-6.2-2.9-8.2c-1.9-2.1-4.6-3.1-8-3.1
				c-3.4,0-6.1,1-8,3.1c-1.9,2.1-2.8,4.8-2.8,8.2v4.2c0,3.5,1,6.2,2.9,8.3c1.9,2.1,4.6,3.1,8,3.1s6.1-1,8-3.1
				c1.9-2.1,2.8-4.8,2.8-8.3V84.1z M357.4,90C357.4,90,357.4,89.9,357.4,90l3.7-3.3l0.1,0.1L357.4,90z M357.4,90
				C357.4,90,357.4,89.9,357.4,90l9.4,0.7v0L357.4,90z M359.7,76.4C359.7,76.4,359.7,76.4,359.7,76.4l5.7,1.7v0.1L359.7,76.4z
				 M365.4,78.2C365.4,78.2,365.4,78.1,365.4,78.2l-4.3,8.6l0.1,0.1L365.4,78.2z M361.2,86.8C361.2,86.8,361.2,86.7,361.2,86.8
				l5.6,3.9l0,0L361.2,86.8z M366.8,90.7C366.8,90.7,366.8,90.7,366.8,90.7l-1.4,8.7l0.1,0.1L366.8,90.7z M365.4,78.2
				C365.4,78.2,365.4,78.1,365.4,78.2l4.1-5.3l0.1,0.1L365.4,78.2z M365.4,78.2C365.4,78.2,365.4,78.1,365.4,78.2l10.8-2.3l0,0.1
				L365.4,78.2z M365.4,78.2C365.4,78.2,365.4,78.1,365.4,78.2l14.2,3.7l0,0L365.4,78.2z M369.1,86.3
				C369.1,86.3,369.1,86.3,369.1,86.3l-3.6-8.2l0,0.1L369.1,86.3z M366.8,90.7L366.8,90.7l2.2-4.5l0.1,0.1L366.8,90.7z M366.8,90.7
				C366.8,90.7,366.8,90.7,366.8,90.7l5.3,8.4l0,0.1L366.8,90.7z M366.8,90.7L366.8,90.7l5.7,2.9v0.1L366.8,90.7z M369.1,86.3
				C369,86.3,369,86.3,369.1,86.3l10.5-4.4v0L369.1,86.3z M372.5,93.7C372.5,93.7,372.5,93.7,372.5,93.7l-3.4-7.4l0,0.1L372.5,93.7z
				 M372.5,93.7C372.5,93.7,372.5,93.7,372.5,93.7l-0.5,5.5l0.1,0.1L372.5,93.7z M379.6,81.9C379.6,81.9,379.6,81.9,379.6,81.9
				l-7.1,11.7l0.1,0.1L379.6,81.9z M372.5,93.7C372.5,93.7,372.5,93.7,372.5,93.7l6.4-3v0L372.5,93.7z M372.5,93.7
				C372.5,93.7,372.5,93.7,372.5,93.7l2.8,4.4l0,0.1L372.5,93.7z"/>
			<path class="st3" d="M389.3,88c0,0.5,0,2.5,0,6.1v6.1l-0.5,0.7l-0.5-0.7V71.8h8.8c3,0,5.3,0.7,6.8,2.2c1.5,1.4,2.3,3.4,2.3,5.9
				c0,2.5-0.8,4.5-2.3,5.9c-1.5,1.4-3.8,2.2-6.8,2.2H389.3z M389.1,100C389.1,100,389,99.9,389.1,100l11-7.4l0,0.1L389.1,100z
				 M394,93.5C394,93.5,394,93.5,394,93.5l-5,6.4l0,0.1L394,93.5z M393.1,80.4C393.1,80.3,393.1,80.3,393.1,80.4l-3.9,7.2l0.1,0.1
				L393.1,80.4z M393.1,86.9h3.9c2.7,0,4.8-0.7,6.1-2c1.3-1.3,2-3,2-5c0-2.1-0.7-3.8-2-5.1c-1.3-1.3-3.4-2-6.1-2h-7.8v14.1
				C389.6,86.9,390.9,86.9,393.1,86.9z M389.3,72.6C389.3,72.6,389.3,72.6,389.3,72.6l3.9,7.6l-0.1,0.1L389.3,72.6z M389.3,87.6
				C389.3,87.6,389.3,87.5,389.3,87.6l4.7,6.1l-0.1,0.1L389.3,87.6z M393.1,80.4C393.1,80.3,393.1,80.3,393.1,80.4l3.7-7.6l0.1,0.1
				L393.1,80.4z M393.1,80.4C393.2,80.3,393.2,80.3,393.1,80.4l9.1,5.3v0.1L393.1,80.4z M393.1,80.4
				C393.1,80.3,393.1,80.3,393.1,80.4l8.4,0.1v0.1L393.1,80.4z M393.9,93.7C393.9,93.7,393.9,93.7,393.9,93.7l3.3-6l0,0L393.9,93.7z
				 M393.9,93.7C393.9,93.7,393.9,93.7,393.9,93.7l6.1-1.2v0.1L393.9,93.7z M396.8,72.8C396.8,72.8,396.9,72.8,396.8,72.8l4.8,7.6
				l0,0.1L396.8,72.8z M400,92.6C400.1,92.6,400.1,92.6,400,92.6l-2.8-4.7l-0.1,0L400,92.6z M400,92.6C400,92.6,400,92.6,400,92.6
				l0.5-5.1l0,0.1L400,92.6z M400,92.6C400,92.6,400,92.6,400,92.6l2.5-3.7l0,0.1L400,92.6z M402.6,89C402.6,89,402.6,89,402.6,89
				l-2-1.5l0,0.1L402.6,89z M401.6,80.5C401.6,80.5,401.5,80.5,401.6,80.5l3.7-3.7l0,0.1L401.6,80.5z M401.6,80.5
				C401.6,80.5,401.6,80.5,401.6,80.5l1,8.4l-0.1,0.1L401.6,80.5z"/>
			<path class="st3" d="M425.5,86.2h-7.3v13.5h16.6l0.5,0.6l-0.5,0.5h-17.6v-29h17.6l0.5,0.6l-0.5,0.5h-16.6v12.3h14.5l0.5,0.6
				l-0.5,0.5C432.1,86.2,429.7,86.2,425.5,86.2z M417.7,85.8C417.7,85.8,417.7,85.8,417.7,85.8l4.6-5.4l0.1,0.1L417.7,85.8z
				 M417.9,73.5C417.9,73.5,417.9,73.5,417.9,73.5l4.5,6.9l0,0.1L417.9,73.5z M422.4,94C422.4,94,422.4,94,422.4,94l-4.4-7.6l0,0.1
				L422.4,94z M422.4,94C422.3,94,422.3,94,422.4,94l-3.4,6.2l0.1,0.1L422.4,94z M422.4,80.4C422.3,80.4,422.3,80.4,422.4,80.4
				l2.9-7.6l0.1,0.1L422.4,80.4z M422.4,94C422.3,94,422.3,94,422.4,94l5.8-7.8l0,0.1L422.4,94z M422.4,80.4
				C422.4,80.4,422.4,80.4,422.4,80.4l7.6-0.5l0,0.1L422.4,80.4z M422.4,94C422.3,94,422.3,94,422.4,94l8.2-3.6l0,0.1L422.4,94z
				 M422.4,80.4C422.4,80.4,422.4,80.4,422.4,80.4l5.8,5.1l0,0L422.4,80.4z M422.4,94C422.4,94,422.4,94,422.4,94l4.6,6l0,0.1
				L422.4,94z M422.4,94C422.4,94,422.4,94,422.4,94l6.2,0.1v0.1L422.4,94z M425.3,72.9C425.3,72.9,425.3,72.8,425.3,72.9l4.7,7.1
				l0,0.1L425.3,72.9z M428.6,94.2C428.6,94.2,428.6,94.1,428.6,94.2l-1.7,5.9l0.1,0.1L428.6,94.2z M430,80
				C430,80,429.9,79.9,430,80l-1.9,5.5l0.1,0L430,80z M428.2,86.2C428.2,86.2,428.2,86.2,428.2,86.2l2.5,4.2l0,0.1L428.2,86.2z
				 M430.6,90.5C430.6,90.5,430.6,90.5,430.6,90.5l-2.1,3.6l0.1,0.1L430.6,90.5z M428.6,94.2C428.6,94.2,428.6,94.1,428.6,94.2
				l5.7,5.9l0,0.1L428.6,94.2z M430,80C430,80,429.9,79.9,430,80l4.7-7.6l0,0.1L430,80z M430.6,90.5
				C430.6,90.5,430.6,90.5,430.6,90.5l3.7,9.7l0,0.1L430.6,90.5z"/>
			<path class="st3" d="M446.7,93.4v6.6l-0.6,0.8l-0.5-0.8V71.8h9c3,0,5.3,0.6,6.9,1.9c1.6,1.3,2.3,3.1,2.3,5.7c0,1.6-0.5,3-1.5,4.3
				c-1,1.3-2.3,2.1-4,2.5l-0.8,0.3c0.4,0.9,1.6,3.1,3.6,6.8c2,3.6,3.2,5.8,3.5,6.6v1l-0.9-0.5c-0.5-0.7-1.7-3-3.8-6.8l-3.7-6.7
				c0-0.1,0-0.1-0.1-0.1h0c-0.1,0-0.4,0-1,0h-8.6C446.7,87.3,446.7,89.5,446.7,93.4z M446.2,74.5C446.2,74.5,446.2,74.5,446.2,74.5
				l3.1,4.9l-0.1,0.1L446.2,74.5z M449.8,92.3C449.8,92.3,449.8,92.3,449.8,92.3l-3.5,6.8l0.1,0.1L449.8,92.3z M446.4,99.2
				C446.3,99.2,446.3,99.2,446.4,99.2l15-3.9v0.1L446.4,99.2z M450.6,85.7h3.9c2.9,0,5.1-0.6,6.4-1.8c1.3-1.2,2-2.7,2-4.6
				c0-2.2-0.7-3.8-2-4.9c-1.3-1.1-3.4-1.6-6.2-1.6h-8v12.9C447.1,85.7,448.4,85.7,450.6,85.7z M449.2,79.4
				C449.2,79.4,449.2,79.4,449.2,79.4l-2.4,6.8l0.1,0.1L449.2,79.4z M446.9,86.3C446.9,86.3,446.9,86.3,446.9,86.3l3,6l-0.1,0.1
				L446.9,86.3z M449.2,79.4C449.2,79.4,449.2,79.4,449.2,79.4l4.7-7.3l0,0L449.2,79.4z M449.2,79.4
				C449.2,79.4,449.2,79.4,449.2,79.4l13.1-4.2l0,0.1L449.2,79.4z M449.2,79.4C449.3,79.4,449.3,79.4,449.2,79.4l7.1,6.6l0,0
				L449.2,79.4z M449.8,92.3C449.8,92.3,449.8,92.3,449.8,92.3l8.8-2.2l0,0L449.8,92.3z M449.8,92.3
				C449.8,92.3,449.8,92.3,449.8,92.3l12,3.2l0,0L449.8,92.3z M462.4,75.3C462.4,75.2,462.3,75.2,462.4,75.3L455.8,86l0,0
				L462.4,75.3z"/>
			<path class="st3" d="M472.5,98.6c0.6,0,0.9,0.3,0.9,0.9c0,0.6-0.3,0.9-0.9,0.9c-0.6,0-0.9-0.3-0.9-0.9
				C471.6,98.9,471.9,98.6,472.5,98.6z"/>
			<path class="st2" d="M518.9,92H512l-3.1,8.3l-0.7,0.4l-0.5-0.4l10.4-27.9l0.7-0.7l0.6,0.7l10.5,27.9l-0.5,0.4l-0.6-0.4l-3.1-8.3
				C525.2,92,522.9,92,518.9,92z M516.1,96C516.1,96,516.1,95.9,516.1,96l-7.4,3.4l0,0.1L516.1,96z M508.8,99.4
				C508.8,99.4,508.8,99.4,508.8,99.4l10.4-0.4v0L508.8,99.4z M512,92C512,92,512,92,512,92l7.4,7l0,0L512,92z M518.9,91h6.5
				l-5.9-15.7l-0.6-1.7h-0.1l-0.6,1.7L512.4,91C512.9,91,515.1,91,518.9,91z M513.4,87.7C513.5,87.7,513.5,87.6,513.4,87.7l5.8,3.4
				l0,0.1L513.4,87.7z M513.6,87.7C513.5,87.7,513.5,87.6,513.6,87.7l3.9-5.4l0,0L513.6,87.7z M513.6,87.7
				C513.6,87.7,513.6,87.6,513.6,87.7l6.1-1.4v0L513.6,87.7z M516.1,80.1C516.1,80.1,516.1,80.1,516.1,80.1l1.4,2.2l-0.1,0
				L516.1,80.1z M516.1,96C516.1,96,516.1,95.9,516.1,96l3.2-4l0.1,0.1L516.1,96z M520.8,96.2C520.8,96.2,520.8,96.1,520.8,96.2
				l-4.6-0.3V96L520.8,96.2z M517.5,82.3L517.5,82.3l2.2-2.1l0,0L517.5,82.3z M517.5,82.3C517.5,82.3,517.5,82.3,517.5,82.3l2.2,3.9
				l0,0L517.5,82.3z M519.1,91.1C519.1,91.1,519.1,91.1,519.1,91.1l0.5-4.9l0.1,0L519.1,91.1z M519.2,99.1L519.2,99.1l9.5,0.1v0.1
				L519.2,99.1z M519.4,99.1C519.4,99.1,519.3,99,519.4,99.1l1.4-2.9l0,0.1L519.4,99.1z M520.8,96.2
				C520.8,96.2,520.8,96.1,520.8,96.2l-1.4-4.2l0,0.1L520.8,96.2z M519.7,86.3L519.7,86.3l3.9-1l0,0.1L519.7,86.3z M519.7,80.3
				C519.7,80.2,519.7,80.2,519.7,80.3l0.1-5.3l-0.1,0.1V80.3z M519.7,86.3C519.7,86.3,519.7,86.3,519.7,86.3l0.1-6l-0.1,0V86.3z
				 M519.7,80.3L519.7,80.3l3.9,5l0,0.1L519.7,80.3z M519.7,86.3L519.7,86.3l5.4,5.1l0,0.1L519.7,86.3z M520.8,96.2
				C520.8,96.2,520.8,96.1,520.8,96.2l5.9-1.7l0,0L520.8,96.2z M520.8,96.2C520.8,96.2,520.8,96.1,520.8,96.2l7.8,3v0.1L520.8,96.2z
				"/>
			<path class="st2" d="M539.4,93.4v6.6l-0.6,0.8l-0.5-0.8V71.8h9c3,0,5.3,0.6,6.9,1.9c1.6,1.3,2.3,3.1,2.3,5.7c0,1.6-0.5,3-1.5,4.3
				c-1,1.3-2.3,2.1-4,2.5l-0.8,0.3c0.4,0.9,1.6,3.1,3.6,6.8c2,3.6,3.2,5.8,3.5,6.6v1l-0.9-0.5c-0.5-0.7-1.7-3-3.8-6.8l-3.7-6.7
				c0-0.1,0-0.1-0.1-0.1h0c-0.1,0-0.4,0-1,0h-8.6C539.4,87.3,539.4,89.5,539.4,93.4z M538.9,74.5C538.9,74.5,538.9,74.5,538.9,74.5
				l3.1,4.9l-0.1,0.1L538.9,74.5z M542.5,92.3C542.5,92.3,542.5,92.3,542.5,92.3l-3.5,6.8l0.1,0.1L542.5,92.3z M539,99.2
				C539,99.2,539,99.2,539,99.2l15-3.9v0.1L539,99.2z M543.3,85.7h3.9c2.9,0,5.1-0.6,6.4-1.8c1.3-1.2,2-2.7,2-4.6
				c0-2.2-0.7-3.8-2-4.9c-1.3-1.1-3.4-1.6-6.2-1.6h-8v12.9C539.7,85.7,541,85.7,543.3,85.7z M541.9,79.4
				C541.9,79.4,541.9,79.4,541.9,79.4l-2.4,6.8l0.1,0.1L541.9,79.4z M539.6,86.3C539.6,86.3,539.6,86.3,539.6,86.3l3,6l-0.1,0.1
				L539.6,86.3z M541.9,79.4C541.9,79.4,541.9,79.4,541.9,79.4l4.7-7.3l0,0L541.9,79.4z M541.9,79.4
				C541.9,79.4,541.9,79.4,541.9,79.4l13.1-4.2l0,0.1L541.9,79.4z M541.9,79.4C541.9,79.4,542,79.4,541.9,79.4L549,86l0,0
				L541.9,79.4z M542.5,92.3C542.5,92.3,542.5,92.3,542.5,92.3l8.8-2.2l0,0L542.5,92.3z M542.5,92.3
				C542.5,92.3,542.5,92.3,542.5,92.3l12,3.2l0,0L542.5,92.3z M555.1,75.3C555,75.2,555,75.2,555.1,75.3L548.5,86l0,0L555.1,75.3z"
				/>
			<path class="st2" d="M581.5,72.8h-5.2v27.4l-0.5,0.6l-0.5-0.6V72.8h-10.3l-0.7-0.5l0.7-0.6h21.7l0.7,0.6l-0.7,0.5
				C586.2,72.8,584.5,72.8,581.5,72.8z M567.3,72.8C567.3,72.8,567.3,72.8,567.3,72.8l8.3,7l0,0.1L567.3,72.8z M570.6,87.5
				C570.7,87.5,570.7,87.5,570.6,87.5l-3.3-14.8l0,0.1L570.6,87.5z M568.7,95.4C568.7,95.3,568.7,95.3,568.7,95.4l1.8-7.9l0.1,0.1
				L568.7,95.4z M575.5,90.3C575.5,90.2,575.5,90.2,575.5,90.3l-6.8,5l0,0.1L575.5,90.3z M568.7,95.4
				C568.8,95.3,568.8,95.3,568.7,95.4l6.5,3.1v0L568.7,95.4z M575.3,79.6C575.2,79.6,575.2,79.6,575.3,79.6l-4.7,7.9l0.1,0.1
				L575.3,79.6z M570.6,87.5C570.6,87.5,570.7,87.5,570.6,87.5l4.9,2.7l0,0.1L570.6,87.5z M576.1,98.7
				C576.1,98.7,576.1,98.7,576.1,98.7l7.9-4.5l0,0.1L576.1,98.7z M576.3,77.8C576.3,77.8,576.3,77.8,576.3,77.8l2.9-5.3l0,0.1
				L576.3,77.8z M579.3,82.6C579.3,82.6,579.2,82.6,579.3,82.6l-3,7.6l0.1,0.1L579.3,82.6z M576.3,90.3
				C576.3,90.2,576.3,90.2,576.3,90.3l12.1-3.6l0,0.1L576.3,90.3z M576.3,77.8C576.3,77.8,576.3,77.8,576.3,77.8l7.1-1.2v0.1
				L576.3,77.8z M579.3,82.6C579.3,82.6,579.3,82.6,579.3,82.6l-2.9-4.8l0,0.1L579.3,82.6z M576.3,90.3
				C576.3,90.2,576.3,90.2,576.3,90.3l7.7,4l0,0.1L576.3,90.3z M579.1,72.8C579.1,72.8,579.2,72.8,579.1,72.8l4.2,3.7l0,0.1
				L579.1,72.8z M579.3,82.6C579.3,82.6,579.2,82.6,579.3,82.6l4.2-6.1l0,0L579.3,82.6z M579.3,82.6L579.3,82.6l10.1-4.6l0,0.1
				L579.3,82.6z M588.4,86.7C588.4,86.7,588.4,86.7,588.4,86.7l-9.1-4.1l0,0L588.4,86.7z M583.4,76.6
				C583.3,76.6,583.3,76.6,583.4,76.6l3.1-3.9l0,0.1L583.4,76.6z M583.4,76.6C583.4,76.6,583.4,76.6,583.4,76.6l6.1,1.4v0.1
				L583.4,76.6z M584,94.3C584,94.3,584,94.2,584,94.3l4.4-7.6l0.1,0.1L584,94.3z M586.5,72.8C586.5,72.8,586.5,72.8,586.5,72.8
				l2.9,5.2l0,0.1L586.5,72.8z M588.4,86.7C588.4,86.7,588.4,86.7,588.4,86.7l0.9-8.7l0.1,0.1L588.4,86.7z"/>
			<path class="st2" d="M601.5,76.7C601.5,76.7,601.5,76.7,601.5,76.7l4-4.8l0.1,0.1L601.5,76.7z M603.6,84.4
				C603.6,84.4,603.6,84.4,603.6,84.4l-2-7.8l0,0L603.6,84.4z M601.5,76.7L601.5,76.7l3.9,2l0,0L601.5,76.7z M601.8,90.5
				C601.8,90.5,601.7,90.5,601.8,90.5l1.8-6.1l0.1,0.1L601.8,90.5z M601.8,90.3C601.8,90.3,601.8,90.3,601.8,90.3l3.7,1.1l0,0.1
				L601.8,90.3z M605.4,95.4C605.4,95.4,605.4,95.4,605.4,95.4l-3.6-5l0,0.1L605.4,95.4z M602.7,99.4
				C602.7,99.4,602.7,99.4,602.7,99.4l2.6-4.1l0.1,0.1L602.7,99.4z M605.4,100.3L605.4,100.3l-2.7-0.9l0,0.1L605.4,100.3z
				 M605.2,85.5C605.2,85.5,605.2,85.4,605.2,85.5l-1.6-1.1l0,0.1L605.2,85.5z M605.8,100.5l-0.3,0.3l-0.5-0.7V72.3l0.5-0.5l0.5,0.5
				v27.8C606.1,100.2,606,100.3,605.8,100.5z M605.6,71.9C605.6,71.8,605.6,71.8,605.6,71.9l4.6,3.9l0,0.1L605.6,71.9z M605.9,85.7
				C605.9,85.7,605.9,85.7,605.9,85.7l3.6-3.6l0,0.1L605.9,85.7z M609,92.6C609,92.5,609,92.5,609,92.6l-3.2,7.6l0.1,0.1L609,92.6z
				 M605.9,90.1L605.9,90.1l3.6-0.7l0,0.1L605.9,90.1z M610.2,98.7L610.2,98.7l-4.3,1.4l0,0.1L610.2,98.7z M609.5,89.4
				C609.5,89.4,609.5,89.4,609.5,89.4l-3.6-3.7l0,0L609.5,89.4z M609,92.7C609,92.7,609,92.7,609,92.7l-3.1-2.5l0,0.1L609,92.7z
				 M610.2,75.8C610.1,75.8,610.1,75.8,610.2,75.8L606,80l0,0.1L610.2,75.8z M606,80C606,80,606,80,606,80l3.5,2.1l0,0.1L606,80z
				 M609.5,89.3C609.5,89.3,609.5,89.3,609.5,89.3l-0.5,3.2l0.1,0L609.5,89.3z M609,92.6C609,92.5,609.1,92.5,609,92.6l1.2,6.1
				l-0.1,0L609,92.6z M609.5,82.2C609.5,82.1,609.5,82.1,609.5,82.2l0.6-6.4l0.1,0.1L609.5,82.2z M609.5,82.2
				C609.5,82.1,609.5,82.1,609.5,82.2l-0.1,7.1l0.1,0.1V82.2z"/>
			<path class="st2" d="M641.9,89.4c-1.3-1-3.5-2-6.8-2.9c-3.3-0.9-5.6-1.9-7.1-3c-1.5-1.1-2.2-2.7-2.2-4.8c0-2.1,0.9-3.8,2.6-5.1
				c1.7-1.2,4-1.9,6.8-1.9c2.8,0,5.1,0.8,6.8,2.3c1.7,1.5,2.6,3.5,2.6,6.1l-0.5,0.6l-0.5-0.6c0-2.2-0.8-3.9-2.3-5.3s-3.5-2-6.1-2
				c-2.6,0-4.6,0.6-6.1,1.7c-1.5,1.1-2.2,2.5-2.2,4.1c0,1.6,0.6,3,1.8,4c1.2,1,3.5,2,6.8,2.8c3.2,0.8,5.5,1.9,7.1,3
				c1.6,1.2,2.3,2.9,2.3,5.1s-0.9,4-2.7,5.3c-1.8,1.3-4.1,1.9-6.9,1.9c-2.9,0-5.3-0.7-7.3-2c-2-1.3-3-3.4-3-6.4l0.5-0.6l0.5,0.6
				c0,2.6,0.9,4.5,2.8,5.6c1.9,1.1,4,1.7,6.6,1.7c2.5,0,4.6-0.6,6.1-1.7c1.6-1.1,2.3-2.6,2.3-4.4C643.8,91.8,643.2,90.4,641.9,89.4z
				 M625.7,93.7C625.7,93.7,625.7,93.7,625.7,93.7l13.2-6l0,0.1L625.7,93.7z M626,93.6L626,93.6l8.9,6.3l0,0L626,93.6z M627.6,82.3
				C627.6,82.3,627.6,82.3,627.6,82.3l14.4-6.8l0,0.1L627.6,82.3z M628.1,82.1L628.1,82.1l9.1,0.7v0.1L628.1,82.1z M631,73.1
				C631,73.1,631,73.1,631,73.1l11.5,2.4v0.1L631,73.1z M639,87.8C639,87.8,638.9,87.7,639,87.8l-4.1,12.1l0,0L639,87.8z
				 M634.9,99.9C634.9,99.9,634.9,99.9,634.9,99.9l8.4-10.4l0,0.1L634.9,99.9z M637.2,82.8C637.2,82.8,637.1,82.8,637.2,82.8
				l4.7-7.3l0.1,0.1L637.2,82.8z M637.2,82.8C637.2,82.8,637.2,82.8,637.2,82.8l0.5,3.4l0,0.1L637.2,82.8z M637.7,86.3
				C637.6,86.3,637.6,86.3,637.7,86.3l5.2-3.9l0,0.1L637.7,86.3z M642.9,82.4C642.9,82.4,642.9,82.4,642.9,82.4l-0.9-6.9l0,0.1
				L642.9,82.4z M642.9,82.4C642.9,82.4,642.9,82.4,642.9,82.4l0.5,7.1l-0.1,0.1L642.9,82.4z"/>
			<path class="st2" d="M668.5,72.8h-5.2v27.4l-0.5,0.6l-0.5-0.6V72.8h-10.3l-0.7-0.5l0.7-0.6h21.7l0.7,0.6l-0.7,0.5
				C673.2,72.8,671.5,72.8,668.5,72.8z M654.3,72.8C654.3,72.8,654.3,72.8,654.3,72.8l8.3,7l0,0.1L654.3,72.8z M657.6,87.5
				C657.7,87.5,657.7,87.5,657.6,87.5l-3.3-14.8l0,0.1L657.6,87.5z M655.7,95.4C655.7,95.3,655.7,95.3,655.7,95.4l1.8-7.9l0.1,0.1
				L655.7,95.4z M662.5,90.3C662.5,90.2,662.5,90.2,662.5,90.3l-6.8,5l0,0.1L662.5,90.3z M655.7,95.4
				C655.8,95.3,655.8,95.3,655.7,95.4l6.5,3.1v0L655.7,95.4z M662.3,79.6C662.2,79.6,662.2,79.6,662.3,79.6l-4.7,7.9l0.1,0.1
				L662.3,79.6z M657.6,87.5C657.6,87.5,657.7,87.5,657.6,87.5l4.9,2.7l0,0.1L657.6,87.5z M663.1,98.7
				C663.1,98.7,663.1,98.7,663.1,98.7l7.9-4.5l0,0.1L663.1,98.7z M663.3,77.8C663.3,77.8,663.3,77.8,663.3,77.8l2.9-5.3l0,0.1
				L663.3,77.8z M666.3,82.6C666.3,82.6,666.2,82.6,666.3,82.6l-3,7.6l0.1,0.1L666.3,82.6z M663.3,90.3
				C663.3,90.2,663.3,90.2,663.3,90.3l12.1-3.6l0,0.1L663.3,90.3z M663.3,77.8C663.3,77.8,663.3,77.8,663.3,77.8l7.1-1.2v0.1
				L663.3,77.8z M666.3,82.6C666.3,82.6,666.3,82.6,666.3,82.6l-2.9-4.8l0,0.1L666.3,82.6z M663.3,90.3
				C663.3,90.2,663.3,90.2,663.3,90.3l7.7,4l0,0.1L663.3,90.3z M666.1,72.8C666.1,72.8,666.2,72.8,666.1,72.8l4.2,3.7l0,0.1
				L666.1,72.8z M666.3,82.6C666.3,82.6,666.2,82.6,666.3,82.6l4.2-6.1l0,0L666.3,82.6z M666.3,82.6L666.3,82.6l10.1-4.6l0,0.1
				L666.3,82.6z M675.4,86.7C675.4,86.7,675.4,86.7,675.4,86.7l-9.1-4.1l0,0L675.4,86.7z M670.4,76.6
				C670.3,76.6,670.3,76.6,670.4,76.6l3.1-3.9l0,0.1L670.4,76.6z M670.4,76.6C670.4,76.6,670.4,76.6,670.4,76.6l6.1,1.4v0.1
				L670.4,76.6z M671,94.3C671,94.3,671,94.2,671,94.3l4.4-7.6l0.1,0.1L671,94.3z M673.5,72.8C673.5,72.8,673.5,72.8,673.5,72.8
				l2.9,5.2l0,0.1L673.5,72.8z M675.4,86.7C675.4,86.7,675.4,86.7,675.4,86.7l0.9-8.7l0.1,0.1L675.4,86.7z"/>
			<path class="st2" d="M681.2,98.6c0.6,0,0.9,0.3,0.9,0.9c0,0.6-0.3,0.9-0.9,0.9c-0.6,0-0.9-0.3-0.9-0.9
				C680.3,98.9,680.6,98.6,681.2,98.6z"/>
		</g>
	</g>
</g>
</svg>
